<svg version="1.1" id="Слой_5" xmlns:x="&ns_extend;" xmlns:i="&ns_ai;" xmlns:graph="&ns_graphs;" xmlns="http://www.w3.org/2000/svg" xmlns:xlink="http://www.w3.org/1999/xlink" x="0px" y="0px" viewBox="0 0 300 92" style="enable-background:new 0 0 300 92;" xml:space="preserve">
	<defs xmlns="http://www.w3.org/2000/svg">
		<style>
			.st0 {
				fill: url(#_Безымянный_градиент_5);
			}
		</style>
		<linearGradient id="_Безымянный_градиент_5" x1="8.91" y1="121.13" x2="778.85" y2="121.13" gradientUnits="userSpaceOnUse">
			<stop offset="0" stop-color="#e6c380"></stop>
			<stop offset="1" stop-color="#a47e37"></stop>
		</linearGradient>
	</defs>
	<switch>
		<g i:extraneous="self">
			<path class="st0" d="M40.7,59.3c-0.1,0.1-0.2,0.2-0.3,0.3c-0.2,0.3-0.5,0.5-0.8,0.8c-3.6,3.3-8.4,5.3-13.6,5.3
			c-3.8,0-7.3-1-10.3-2.9l21.7-34.9c2,1.4,3.7,3.1,5.1,4.9l0.2,0.2l4.8-3.1C42.7,23.2,34.8,18.6,26,18.6C15.9,18.6,7.2,24.5,2.9,33
			c-0.1,0.1-0.1,0.3-0.2,0.4c-0.1,0.1-0.1,0.2-0.2,0.3c-0.3,0.5-0.5,1.1-0.7,1.6c-1.2,3-1.8,6.3-1.8,9.4c0,0.1,0,0.2,0,0.3
			c0,1.1,0.1,2.1,0.2,3.1c0.2,2.5,0.9,4.9,1.9,7.4c1.1,2.6,2.6,4.8,4.3,6.8c1,1.2,2.1,2.2,3.3,3.2c2,1.7,4.2,3,6.6,3.9
			c0.2,0.1,0.5,0.2,0.7,0.3c0.1,0,0.2,0.1,0.2,0.1c0.1,0.1,0.3,0.1,0.4,0.1c2.6,0.9,5.4,1.4,8.4,1.4c7.7,0,14.7-3.5,19.5-8.9
			L40.7,59.3z M8.4,55.5c-0.1-0.1-0.1-0.2-0.2-0.3C8.1,55,8,54.9,8,54.8c-1.5-2.9-2.4-6.2-2.4-9.7l0,0l0-0.1c0-0.3,0-0.6,0-0.9
			c0.2-3.5,1.2-6.8,2.9-9.7c0.8-1.4,1.9-2.7,3.1-3.9c1.9-1.9,4.2-3.5,6.6-4.5c2.6-1.1,5.2-1.6,7.8-1.5h0c2.1,0,4.2,0.3,6.4,1
			L11.2,59.3C10.1,58.1,9.2,56.9,8.4,55.5z"></path>
			<path id="A_1_" class="st0" d="M73.3,19L50.8,70.8h5.7l8.8-20.4l25.3,20.4h5.1L73.3,19z M85.4,60l-18-14.6l5.8-13.3l10.9,24.8
			L85.4,60z"></path>
			<path id="P" class="st0" d="M132,26.2c-3.2-4.7-7.9-7.1-14.1-7.2h-15.4v11.8h5.5v-6.3h9.8c0.8,0,1.7,0.1,2.7,0.2l-18,24.7v21.8
			h5.5l0.1-17.4h9.8c3.5,0.1,6.9-0.9,9.7-2.8h0.1l0.1,0c1.8-1.3,3.5-3,4.7-5c1.2-2,2-4.2,2.3-6.5C135.7,34.8,134.7,30.1,132,26.2z
			 M129.5,38.5c-0.3,1.6-0.8,3.1-1.6,4.4c-0.8,1.3-1.9,2.5-3.2,3.4c-2,1.3-4.4,1.9-6.9,1.9h-7.6l15.4-21.2c0.7,0.6,1.3,1.3,1.8,2.1
			C129.4,32,130.1,35.3,129.5,38.5z"></path>
			<polygon id="I" class="st0" points="152.8,65.4 152.8,19 147.2,19 147.2,65.3 141.2,65.3 141.2,70.9 158.8,70.9 158.8,65.4 		"></polygon>
			<polygon id="T" class="st0" points="168.3,19.1 168.3,24.5 185.6,24.5 185.6,70.9 191,70.9 191,24.5 208.1,24.5 208.1,19.1 		"></polygon>
			<path id="A" class="st0" d="M231.9,18.9l-22.5,52h5.7l8.8-20.5l25.4,20.5h5.1L231.9,18.9z M244.2,60.1l-18-14.7l5.7-13.4l11,25
			L244.2,60.1z"></path>
			<polygon id="L" class="st0" points="300,65.6 270.9,65.6 270.9,19 265.1,19 265.1,71.3 270.9,71.3 270.9,71.3 300,71.3 		"></polygon>
			<path class="st0" d="M174.6,10.2h125.2v2.2H174.6V10.2z"></path>
			<path class="st0" d="M0.1,10.2h130.5v2.2H0.1V10.2z"></path>
			<path class="st0" d="M139.7,10.2h2.2v2.2h-2.2V10.2z"></path>
			<path class="st0" d="M157.5,10.2h2.2v2.2h-2.2V10.2z"></path>
			<path class="st0" d="M134.3,2.9h-3.7V0.7h10.2v2.2h-3.7v9.5h-2.7V2.9z"></path>
			<path class="st0" d="M155.4,0.7v11.7h-2.7V7.6h-5.3v4.8h-2.7V0.7h2.7v4.6h5.3V0.7H155.4z"></path>
			<path class="st0" d="M171.1,10.3v2.2H162V0.7h8.9v2.2h-6.2v2.5h5.4v2.1h-5.4v2.7H171.1z"></path>
			<rect x="0.2" y="77.5" class="st0" width="24.4" height="2.1"></rect>
			<rect x="274.3" y="77.5" class="st0" width="25.5" height="2.2"></rect>
			<g>
				<path class="st0" d="M36.5,86.8h-5.4l-1,2.5h-2.8l5.2-11.7h2.7l5.2,11.7h-2.8L36.5,86.8z M35.6,84.7l-1.9-4.5l-1.9,4.5H35.6z"></path>
				<path class="st0" d="M50.2,79.8h-5.6l0,9.5h-2.7V77.6h8.3L50.2,79.8z"></path>
				<path class="st0" d="M60.9,87.1v2.2h-9.1V77.6h8.9v2.2h-6.2v2.5H60v2.1h-5.4v2.7H60.9z"></path>
				<path class="st0" d="M73.9,77.6v11.7h-2.7v-4.8h-5.3v4.8h-2.7V77.6h2.7v4.6h5.3v-4.6H73.9z"></path>
				<path class="st0" d="M85.8,79.8H82v9.5h-2.7v-9.5h-3.7v-2.2h10.2V79.8z"></path>
				<path class="st0" d="M89.6,88.7c-1-0.5-1.7-1.2-2.3-2.2c-0.6-0.9-0.8-2-0.8-3.1c0-1.2,0.3-2.2,0.8-3.1c0.6-0.9,1.3-1.6,2.3-2.2
				c1-0.5,2.1-0.8,3.3-0.8c1,0,1.9,0.2,2.8,0.5c0.8,0.4,1.5,0.9,2.1,1.5L95.9,81c-0.8-0.9-1.8-1.4-2.9-1.4c-0.7,0-1.4,0.2-1.9,0.5
				c-0.6,0.3-1,0.8-1.3,1.3s-0.5,1.2-0.5,1.9c0,0.7,0.2,1.4,0.5,1.9s0.8,1,1.3,1.3c0.6,0.3,1.2,0.5,1.9,0.5c1.2,0,2.2-0.5,2.9-1.4
				l1.7,1.6c-0.6,0.7-1.3,1.2-2.1,1.6c-0.8,0.4-1.7,0.5-2.8,0.5C91.6,89.5,90.6,89.2,89.6,88.7z"></path>
				<path class="st0" d="M108.3,79.8h-3.7v9.5h-2.7v-9.5h-3.7v-2.2h10.2V79.8z"></path>
				<path class="st0" d="M119.8,84.2c0.4,0.5,0.6,1.1,0.6,1.8c0,1-0.4,1.8-1.2,2.4c-0.8,0.6-1.9,0.9-3.4,0.9H110V77.6h5.5
				c1.4,0,2.4,0.3,3.2,0.8c0.8,0.5,1.1,1.3,1.1,2.2c0,0.6-0.1,1.1-0.4,1.5c-0.3,0.4-0.7,0.8-1.2,1C118.8,83.4,119.4,83.7,119.8,84.2
				z M112.7,82.4h2.5c0.6,0,1-0.1,1.3-0.4c0.3-0.2,0.5-0.6,0.5-1.1c0-0.5-0.2-0.8-0.5-1.1c-0.3-0.2-0.8-0.4-1.3-0.4h-2.5V82.4z
				 M117.6,85.8c0-1-0.6-1.5-1.9-1.5h-3v3h3C116.9,87.3,117.6,86.8,117.6,85.8z"></path>
				<path class="st0" d="M124.8,88.7c-1-0.5-1.7-1.2-2.3-2.2c-0.6-0.9-0.8-2-0.8-3.1c0-1.1,0.3-2.2,0.8-3.1c0.6-0.9,1.3-1.6,2.3-2.2
				c1-0.5,2.1-0.8,3.3-0.8c1.2,0,2.3,0.3,3.3,0.8c1,0.5,1.7,1.2,2.3,2.2c0.6,0.9,0.8,2,0.8,3.1c0,1.1-0.3,2.2-0.8,3.1
				c-0.6,0.9-1.3,1.6-2.3,2.2c-1,0.5-2.1,0.8-3.3,0.8C126.8,89.5,125.7,89.2,124.8,88.7z M129.9,86.7c0.6-0.3,1-0.8,1.3-1.3
				c0.3-0.6,0.5-1.2,0.5-1.9c0-0.7-0.2-1.4-0.5-1.9c-0.3-0.6-0.8-1-1.3-1.3c-0.6-0.3-1.2-0.5-1.9-0.5c-0.7,0-1.3,0.2-1.9,0.5
				c-0.6,0.3-1,0.8-1.3,1.3s-0.5,1.2-0.5,1.9c0,0.7,0.2,1.4,0.5,1.9s0.8,1,1.3,1.3c0.6,0.3,1.2,0.5,1.9,0.5
				C128.8,87.2,129.4,87,129.9,86.7z"></path>
				<path class="st0" d="M152,77.6v11.7h-2.7v-4.8H144v4.8h-2.7V77.6h2.7v4.6h5.3v-4.6H152z"></path>
				<path class="st0" d="M164,87.1v2.2H155V77.6h8.9v2.2h-6.2v2.5h5.4v2.1h-5.4v2.7H164z"></path>
				<path class="st0" d="M174,78.1c0.8,0.3,1.4,0.8,1.8,1.5c0.4,0.6,0.6,1.4,0.6,2.3c0,0.9-0.2,1.6-0.6,2.3c-0.4,0.6-1,1.1-1.8,1.5
				c-0.8,0.3-1.7,0.5-2.7,0.5H169v3.2h-2.7V77.6h5.1C172.4,77.6,173.3,77.7,174,78.1z M173,83.3c0.4-0.4,0.6-0.9,0.6-1.5
				c0-0.7-0.2-1.2-0.6-1.5c-0.4-0.4-1-0.5-1.9-0.5H169v4.1h2.2C172,83.8,172.6,83.7,173,83.3z"></path>
				<path class="st0" d="M188.5,77.6l-5,9.3c-0.5,0.9-1.1,1.6-1.7,2c-0.7,0.5-1.4,0.7-2.2,0.7c-0.6,0-1.2-0.1-1.9-0.4l0.7-2.1
				c0.5,0.1,0.9,0.2,1.2,0.2c0.3,0,0.6-0.1,0.9-0.2c0.3-0.2,0.5-0.4,0.7-0.8l0.1-0.1l-4.6-8.6h2.9l3.1,6.3l3.2-6.3H188.5z"></path>
				<path class="st0" d="M191.7,77.6l2.4,3.5l2.4-3.5h3.2l-3.9,5.6l4.2,6.1h-3.2l-2.7-3.9l-2.7,3.9h-3.1l4.2-6l-3.9-5.7H191.7z"></path>
				<path class="st0" d="M203.6,88.7c-1-0.5-1.7-1.2-2.3-2.2c-0.6-0.9-0.8-2-0.8-3.1c0-1.1,0.3-2.2,0.8-3.1c0.6-0.9,1.3-1.6,2.3-2.2
				c1-0.5,2.1-0.8,3.3-0.8c1.2,0,2.3,0.3,3.3,0.8c1,0.5,1.7,1.2,2.3,2.2c0.6,0.9,0.8,2,0.8,3.1c0,1.1-0.3,2.2-0.8,3.1
				c-0.6,0.9-1.3,1.6-2.3,2.2c-1,0.5-2.1,0.8-3.3,0.8C205.7,89.5,204.6,89.2,203.6,88.7z M208.8,86.7c0.6-0.3,1-0.8,1.3-1.3
				c0.3-0.6,0.5-1.2,0.5-1.9c0-0.7-0.2-1.4-0.5-1.9c-0.3-0.6-0.8-1-1.3-1.3c-0.6-0.3-1.2-0.5-1.9-0.5c-0.7,0-1.3,0.2-1.9,0.5
				c-0.6,0.3-1,0.8-1.3,1.3c-0.3,0.6-0.5,1.2-0.5,1.9c0,0.7,0.2,1.4,0.5,1.9c0.3,0.6,0.8,1,1.3,1.3c0.6,0.3,1.2,0.5,1.9,0.5
				C207.6,87.2,208.2,87,208.8,86.7z"></path>
				<path class="st0" d="M226.1,89.3l0-7l-3.4,5.8h-1.2l-3.4-5.6v6.9h-2.5V77.6h2.2l4.4,7.3l4.3-7.3h2.2l0,11.7H226.1z"></path>
				<path class="st0" d="M233.8,88.7c-1-0.5-1.7-1.2-2.3-2.2c-0.6-0.9-0.8-2-0.8-3.1c0-1.1,0.3-2.2,0.8-3.1c0.6-0.9,1.3-1.6,2.3-2.2
				c1-0.5,2.1-0.8,3.3-0.8c1.2,0,2.3,0.3,3.3,0.8c1,0.5,1.7,1.2,2.3,2.2c0.6,0.9,0.8,2,0.8,3.1c0,1.1-0.3,2.2-0.8,3.1
				c-0.6,0.9-1.3,1.6-2.3,2.2c-1,0.5-2.1,0.8-3.3,0.8C235.9,89.5,234.8,89.2,233.8,88.7z M239,86.7c0.6-0.3,1-0.8,1.3-1.3
				c0.3-0.6,0.5-1.2,0.5-1.9c0-0.7-0.2-1.4-0.5-1.9c-0.3-0.6-0.8-1-1.3-1.3c-0.6-0.3-1.2-0.5-1.9-0.5c-0.7,0-1.3,0.2-1.9,0.5
				c-0.6,0.3-1,0.8-1.3,1.3c-0.3,0.6-0.5,1.2-0.5,1.9c0,0.7,0.2,1.4,0.5,1.9c0.3,0.6,0.8,1,1.3,1.3c0.6,0.3,1.2,0.5,1.9,0.5
				C237.8,87.2,238.4,87,239,86.7z"></path>
				<path class="st0" d="M247.9,88.7c-1-0.5-1.7-1.2-2.3-2.2c-0.6-0.9-0.8-2-0.8-3.1c0-1.2,0.3-2.2,0.8-3.1c0.6-0.9,1.3-1.6,2.3-2.2
				c1-0.5,2.1-0.8,3.3-0.8c1,0,1.9,0.2,2.8,0.5c0.8,0.4,1.5,0.9,2.1,1.5l-1.7,1.6c-0.8-0.9-1.8-1.4-2.9-1.4c-0.7,0-1.4,0.2-1.9,0.5
				c-0.6,0.3-1,0.8-1.3,1.3c-0.3,0.6-0.5,1.2-0.5,1.9c0,0.7,0.2,1.4,0.5,1.9c0.3,0.6,0.8,1,1.3,1.3c0.6,0.3,1.2,0.5,1.9,0.5
				c1.2,0,2.2-0.5,2.9-1.4l1.7,1.6c-0.6,0.7-1.2,1.2-2.1,1.6c-0.8,0.4-1.7,0.5-2.8,0.5C249.9,89.5,248.9,89.2,247.9,88.7z"></path>
				<path class="st0" d="M266.6,79.8h-3.7v9.5h-2.7v-9.5h-3.7v-2.2h10.2V79.8z"></path>
				<path class="st0" d="M268.3,77.6h2.7v11.7h-2.7V77.6z"></path>
			</g>
			<rect x="141.2" y="19.1" class="st0" width="17.6" height="5.6"></rect>
		</g>
	</switch>
</svg>
